<svg width="140" height="140" viewBox="0 0 140 140" fill="none" xmlns="http://www.w3.org/2000/svg">
<path d="M0 66C0 29.5492 29.5492 0 66 0H73.9111C110.362 0 139.911 29.5492 139.911 66V140H66C29.5492 140 0 110.451 0 74V66Z" fill="#416275"/>
<path d="M103.153 112.504L107.377 111.48C108.742 111.48 109.425 112.163 109.425 113.528C109.34 115.747 108.188 117.709 105.969 119.416C103.836 121.208 101.404 122.104 98.673 122.104C95.9423 122.104 93.7663 120.781 92.145 118.136C89.841 114.296 87.665 107.427 85.617 97.528C84.6783 92.7493 83.569 88.824 82.289 85.752C79.985 86.52 77.553 86.904 74.993 86.904C72.433 86.904 70.1717 86.392 68.209 85.368C66.3317 84.2587 65.393 82.936 65.393 81.4C65.5637 77.4747 68.721 75.512 74.865 75.512C77.8517 75.512 81.0517 76.8347 84.465 79.48C89.7557 75.4693 92.401 69.88 92.401 62.712C92.401 58.4453 91.5903 54.6907 89.969 51.448C88.3477 48.12 86.2143 45.5173 83.569 43.64C78.3637 39.9707 72.561 38.136 66.161 38.136C65.9903 40.0133 65.6917 43 65.265 47.096C64.4117 55.6293 63.8997 62.2427 63.729 66.936L63.345 87.16C63.345 102.691 60.273 110.456 54.129 110.456C50.2037 110.456 48.241 108.792 48.241 105.464C48.241 104.611 48.7957 103.16 49.905 101.112C51.0997 99.064 51.953 96.7173 52.465 94.072C52.977 91.3413 53.5317 83.448 54.129 70.392C54.7263 57.2507 55.537 46.9253 56.561 39.416C52.0383 40.696 48.3263 42.6587 45.425 45.304C42.609 47.9493 41.201 51.064 41.201 54.648C41.201 56.696 40.7317 58.36 39.793 59.64C38.8543 60.8347 37.7023 61.432 36.337 61.432C33.8623 61.432 32.625 60.1093 32.625 57.464C32.625 51.4907 35.0143 46.584 39.793 42.744C44.657 38.8187 50.6303 36.0027 57.713 34.296C59.4197 28.5787 61.809 25.72 64.881 25.72C66.0757 25.72 66.673 27.0853 66.673 29.816C66.673 30.4133 66.5877 31.48 66.417 33.016C67.3557 32.8453 69.1477 32.76 71.793 32.76C74.4383 32.76 77.425 33.144 80.753 33.912C84.081 34.68 87.409 36.0027 90.737 37.88C94.1503 39.672 96.881 42.4453 98.929 46.2C100.977 49.8693 102.001 54.1787 102.001 59.128C102.001 64.0773 100.721 68.6853 98.161 72.952C95.601 77.2187 92.273 80.632 88.177 83.192C91.0783 86.776 93.3397 91.1707 94.961 96.376C96.6677 101.581 98.2463 105.549 99.697 108.28C101.148 111.096 102.3 112.504 103.153 112.504ZM70.641 79.864C70.641 80.5467 71.2383 81.144 72.433 81.656C73.6277 82.168 74.865 82.424 76.145 82.424C77.5103 82.424 78.7477 82.2107 79.857 81.784C78.1503 79.8213 76.1877 78.84 73.969 78.84C71.7503 78.84 70.641 79.1813 70.641 79.864Z" fill="#F6C67C"/>
</svg>
