<svg width="143" height="143" viewBox="0 0 143 143" fill="none" xmlns="http://www.w3.org/2000/svg">
<rect width="139.697" height="139.697" rx="27" fill="#5C3889"/>
<path d="M37.4188 104.429C36.764 103.775 36.4366 103.029 36.4366 102.192C36.4366 101.355 36.764 100.61 37.4188 99.9548L44.0762 93.1883C41.5297 90.1324 39.547 86.7309 38.1282 82.9839C36.7094 79.2368 36 75.2169 36 70.9241C36 61.1745 39.3833 52.9164 46.1498 46.1498C52.9164 39.3833 61.1745 36 70.9241 36H105.848V70.9241C105.848 80.6738 102.465 88.9319 95.6984 95.6984C88.9319 102.465 80.6738 105.848 70.9241 105.848C66.6314 105.848 62.6115 105.139 58.8644 103.72C55.1173 102.301 51.7159 100.319 48.66 97.7721L41.8934 104.429C41.2386 105.084 40.4928 105.412 39.6561 105.412C38.8194 105.412 38.0736 105.084 37.4188 104.429ZM54.6626 87.1857C55.3174 87.8405 56.0814 88.1679 56.9545 88.1679C57.8276 88.1679 58.5916 87.8405 59.2464 87.1857L76.8176 69.6145C77.4724 68.9597 77.7998 68.1957 77.7998 67.3226C77.7998 66.4495 77.4724 65.6855 76.8176 65.0307C76.2355 64.4486 75.4897 64.1576 74.5803 64.1576C73.6708 64.1576 72.925 64.4486 72.3429 65.0307L54.6626 82.711C54.0805 83.2931 53.7895 84.0389 53.7895 84.9484C53.7895 85.8578 54.0805 86.6036 54.6626 87.1857Z" fill="white"/>
<g filter="url(#filter0_d_489_2)">
<path d="M139.224 122.75C139.703 121.917 140 120.978 140 120.134V90.8655C140 90.0223 139.703 89.0835 139.224 88.2501L109.5 105.5L139.224 122.75Z" fill="white"/>
<path d="M112.141 139.367L137.359 124.733C138.085 124.311 138.745 123.583 139.224 122.75L109.5 105.5L79.7761 122.75C80.2547 123.583 80.9151 124.312 81.6413 124.733L106.859 139.367C108.311 140.211 110.689 140.211 112.141 139.367Z" fill="white"/>
<path d="M139.224 88.2499C138.745 87.4163 138.085 86.6884 137.359 86.2668L112.141 71.6324C110.689 70.7892 108.311 70.7892 106.859 71.6324L81.6413 86.2668C80.1885 87.1098 79 89.1792 79 90.8654V120.134C79 120.978 79.2972 121.917 79.7761 122.75L109.5 105.5L139.224 88.2499Z" fill="white"/>
<path d="M109.5 125.939C98.2882 125.939 89.1667 116.77 89.1667 105.5C89.1667 94.2302 98.2882 85.0615 109.5 85.0615C116.735 85.0615 123.482 88.9749 127.108 95.2744L118.309 100.393C116.494 97.2397 113.118 95.2808 109.5 95.2808C103.894 95.2808 99.3333 99.865 99.3333 105.5C99.3333 111.135 103.894 115.719 109.5 115.719C113.119 115.719 116.494 113.76 118.309 110.607L127.109 115.725C123.483 122.025 116.735 125.939 109.5 125.939Z" fill="#5C3889"/>
<path d="M129.833 104.364H127.574V102.094H125.315V104.364H123.056V106.635H125.315V108.906H127.574V106.635H129.833V104.364Z" fill="#5C3889"/>
<path d="M138.306 104.364H136.046V102.094H133.787V104.364H131.528V106.635H133.787V108.906H136.046V106.635H138.306V104.364Z" fill="#5C3889"/>
</g>
<defs>
<filter id="filter0_d_489_2" x="74" y="66" width="69" height="77" filterUnits="userSpaceOnUse" color-interpolation-filters="sRGB">
<feFlood flood-opacity="0" result="BackgroundImageFix"/>
<feColorMatrix in="SourceAlpha" type="matrix" values="0 0 0 0 0 0 0 0 0 0 0 0 0 0 0 0 0 0 127 0" result="hardAlpha"/>
<feOffset dx="-1" dy="-1"/>
<feGaussianBlur stdDeviation="2"/>
<feComposite in2="hardAlpha" operator="out"/>
<feColorMatrix type="matrix" values="0 0 0 0 0 0 0 0 0 0 0 0 0 0 0 0 0 0 0.5 0"/>
<feBlend mode="normal" in2="BackgroundImageFix" result="effect1_dropShadow_489_2"/>
<feBlend mode="normal" in="SourceGraphic" in2="effect1_dropShadow_489_2" result="shape"/>
</filter>
</defs>
</svg>
