<svg width="78" height="78" viewBox="0 0 78 78" fill="none" xmlns="http://www.w3.org/2000/svg">
<g filter="url(#filter0_d_644_2)">
<rect x="15" y="18" width="40" height="38" fill="#EFF1F5"/>
<path d="M5.41876 68.4295C4.76393 67.7746 4.43652 67.0289 4.43652 66.1921C4.43652 65.3554 4.76393 64.6096 5.41876 63.9548L12.0762 57.1883C9.52962 54.1324 7.54695 50.7309 6.12816 46.9839C4.70937 43.2368 3.99997 39.2169 3.99997 34.9241C3.99997 25.1745 7.38325 16.9164 14.1498 10.1498C20.9163 3.38327 29.1745 -7.62939e-06 38.9241 -7.62939e-06H73.8482V34.9241C73.8482 44.6738 70.465 52.9319 63.6984 59.6984C56.9319 66.465 48.6738 69.8483 38.9241 69.8483C34.6313 69.8483 30.6114 69.1389 26.8644 67.7201C23.1173 66.3013 19.7158 64.3186 16.66 61.7721L9.89342 68.4295C9.23859 69.0843 8.49281 69.4117 7.65609 69.4117C6.81937 69.4117 6.07359 69.0843 5.41876 68.4295ZM22.6626 51.1857C23.3174 51.8405 24.0813 52.1679 24.9545 52.1679C25.8276 52.1679 26.5915 51.8405 27.2463 51.1857L44.8176 33.6145C45.4724 32.9596 45.7998 32.1957 45.7998 31.3226C45.7998 30.4495 45.4724 29.6855 44.8176 29.0307C44.2355 28.4486 43.4897 28.1576 42.5802 28.1576C41.6707 28.1576 40.925 28.4486 40.3429 29.0307L22.6626 46.711C22.0805 47.2931 21.7895 48.0389 21.7895 48.9484C21.7895 49.8578 22.0805 50.6036 22.6626 51.1857Z" fill="white"/>
<path d="M36.8463 32.7423L32.8884 36.7001L28.915 32.7267L24.9578 36.6838L28.9313 40.6573L24.9735 44.6151L28.9469 48.5886L32.9048 44.6307L36.8786 48.6046L40.8357 44.6474L36.8619 40.6736L40.8197 36.7158L36.8463 32.7423Z" fill="#5C3889"/>
<path d="M56.1332 23.0147H50.536V17.3953H44.9398V23.0147H39.3425V28.634H44.9398V34.2538H50.536V28.634H56.1332V23.0147Z" fill="#5C3889"/>
</g>
<defs>
<filter id="filter0_d_644_2" x="-3.05176e-05" y="-7.62939e-06" width="77.8483" height="77.8483" filterUnits="userSpaceOnUse" color-interpolation-filters="sRGB">
<feFlood flood-opacity="0" result="BackgroundImageFix"/>
<feColorMatrix in="SourceAlpha" type="matrix" values="0 0 0 0 0 0 0 0 0 0 0 0 0 0 0 0 0 0 127 0" result="hardAlpha"/>
<feOffset dy="4"/>
<feGaussianBlur stdDeviation="2"/>
<feComposite in2="hardAlpha" operator="out"/>
<feColorMatrix type="matrix" values="0 0 0 0 0 0 0 0 0 0 0 0 0 0 0 0 0 0 0.25 0"/>
<feBlend mode="normal" in2="BackgroundImageFix" result="effect1_dropShadow_644_2"/>
<feBlend mode="normal" in="SourceGraphic" in2="effect1_dropShadow_644_2" result="shape"/>
</filter>
</defs>
</svg>
